<?xml version="1.0" encoding="UTF-8"?>
<svg id="Layer_1" data-name="Layer 1" xmlns="http://www.w3.org/2000/svg" viewBox="0 0 542 542">
  <defs>
    <style>
      .cls-1 {
        fill: #5e6e66;
      }
    </style>
  </defs>
  <path class="cls-1" d="M512.93,200.8L341.21,29.07c-38.76-38.76-101.65-38.76-140.41,0L29.07,200.8c-38.76,38.76-38.76,101.65,0,140.47l171.73,171.66c38.76,38.76,101.65,38.76,140.41,0l171.73-171.66c38.76-38.82,38.76-101.72,0-140.47ZM489.51,317.85l-171.66,171.66c-25.9,25.84-67.79,25.84-93.69,0L52.49,317.85c-25.84-25.9-25.84-67.79,0-93.69L224.15,52.49c25.9-25.84,67.79-25.84,93.69,0l171.66,171.66c25.84,25.9,25.84,67.79,0,93.69Z"/>
  <path class="cls-1" d="M458.32,255.41c-17.45-10.81-60.78-82.13-85.86-54.61,0,0-140.48,140.48-140.48,140.48,9.32,12.15,26.47,20.65,39.02,7.76,0,0,117.05-117.05,117.05-117.05l39.02,39.02-156.07,156.07-78.03-78.03c100.53-101.22,100.15-70.64,0-171.66-8.61-8.61-22.57-8.61-31.25,0l-78.03,78.03c-8.61,8.61-8.61,22.58,0,31.19l171.73,171.73c8.61,8.61,22.58,8.61,31.19,0l171.73-171.73c8.61-8.61,8.61-22.57,0-31.19ZM114.93,271l62.44-62.44,54.61,54.61-62.44,62.44-54.61-54.61Z"/>
</svg>